<svg xmlns="http://www.w3.org/2000/svg" width="28" height="28" viewBox="0 0 28 28" shape-rendering="crispEdges">
<rect x="0" y="0" width="28" height="28" fill="#C6C6C6"/>
<rect x="0" y="0" width="28" height="1" fill="#101010"/>
<rect x="0" y="27" width="28" height="1" fill="#101010"/>
<rect x="0" y="0" width="1" height="28" fill="#101010"/>
<rect x="27" y="0" width="1" height="28" fill="#101010"/>
<rect x="1" y="1" width="26" height="6" fill="#0000A8"/>
<rect x="5" y="10" width="13" height="11" fill="#E8E8E8"/>
<rect x="5" y="10" width="13" height="1" fill="#666666"/>
<rect x="5" y="20" width="13" height="1" fill="#666666"/>
<rect x="5" y="10" width="1" height="11" fill="#666666"/>
<rect x="17" y="10" width="1" height="11" fill="#666666"/>
<rect x="10" y="14" width="13" height="10" fill="#FFFFFF"/>
<rect x="10" y="15" width="13" height="2" fill="#0000A8"/>
<rect x="10" y="14" width="13" height="1" fill="#101010"/>
<rect x="10" y="23" width="13" height="1" fill="#101010"/>
<rect x="10" y="14" width="1" height="10" fill="#101010"/>
<rect x="22" y="14" width="1" height="10" fill="#101010"/>
</svg>
