<svg xmlns="http://www.w3.org/2000/svg" width="24" height="24" viewBox="0 0 24 24" shape-rendering="crispEdges">
<rect x="2" y="12" width="20" height="10" fill="#E8E8E8"/>
<rect x="2" y="12" width="1" height="10" fill="#101010"/>
<rect x="21" y="12" width="1" height="10" fill="#101010"/>
<rect x="2" y="12" width="4" height="1" fill="#101010"/>
<rect x="18" y="12" width="4" height="1" fill="#101010"/>
<rect x="6" y="2" width="12" height="19" fill="#FFFFFF"/>
<rect x="6" y="3" width="12" height="3" fill="#0000A8"/>
<rect x="6" y="2" width="12" height="1" fill="#101010"/>
<rect x="6" y="20" width="12" height="1" fill="#101010"/>
<rect x="6" y="2" width="1" height="19" fill="#101010"/>
<rect x="17" y="2" width="1" height="19" fill="#101010"/>
<rect x="2" y="16" width="20" height="6" fill="#C6C6C6"/>
<rect x="2" y="16" width="20" height="1" fill="#101010"/>
<rect x="2" y="16" width="1" height="6" fill="#101010"/>
<rect x="21" y="16" width="1" height="6" fill="#101010"/>
<rect x="2" y="21" width="20" height="1" fill="#101010"/>
</svg>
