<svg xmlns="http://www.w3.org/2000/svg" width="40" height="40" viewBox="0 0 40 40" shape-rendering="crispEdges">
<rect x="2" y="20" width="36" height="18" fill="#E8E8E8"/>
<rect x="2" y="20" width="2" height="18" fill="#101010"/>
<rect x="36" y="20" width="2" height="18" fill="#101010"/>
<rect x="2" y="20" width="8" height="2" fill="#101010"/>
<rect x="30" y="20" width="8" height="2" fill="#101010"/>
<rect x="10" y="2" width="20" height="33" fill="#FFFFFF"/>
<rect x="10" y="4" width="20" height="5" fill="#0000A8"/>
<rect x="10" y="2" width="20" height="2" fill="#101010"/>
<rect x="10" y="33" width="20" height="2" fill="#101010"/>
<rect x="10" y="2" width="2" height="33" fill="#101010"/>
<rect x="28" y="2" width="2" height="33" fill="#101010"/>
<rect x="2" y="28" width="36" height="10" fill="#C6C6C6"/>
<rect x="2" y="28" width="36" height="2" fill="#101010"/>
<rect x="2" y="28" width="2" height="10" fill="#101010"/>
<rect x="36" y="28" width="2" height="10" fill="#101010"/>
<rect x="2" y="36" width="36" height="2" fill="#101010"/>
</svg>
